HIERARCHY
ROOT Hips
{
	OFFSET 0.000000 0.000000 0.000000 
	CHANNELS 6 Xposition Yposition Zposition Zrotation Xrotation Yrotation
	JOINT Spine
	{
		OFFSET -0.000000 8.061080 0.000000 
		CHANNELS 3 Zrotation Xrotation Yrotation
		JOINT Spine1
		{
			OFFSET -0.000000 20.532677 0.000000 
			CHANNELS 3 Zrotation Xrotation Yrotation
			JOINT Neck
			{
				OFFSET -0.000000 22.498795 0.000000 
				CHANNELS 3 Zrotation Xrotation Yrotation
				JOINT Head
				{
					OFFSET -0.000000 15.237408 1.966117 
					CHANNELS 3 Zrotation Xrotation Yrotation
					End Site
					{
						OFFSET -0.000000 19.661171 0.000000 
					}
				}
			}
			JOINT LeftShoulder
			{
				OFFSET 3.894675 16.042269 -0.398189 
				CHANNELS 3 Zrotation Xrotation Yrotation
				JOINT LeftArm
				{
					OFFSET 19.709621 0.000000 0.000000 
					CHANNELS 3 Zrotation Xrotation Yrotation
					JOINT LeftForeArm
					{
						OFFSET 25.566900 0.000000 0.000000 
						CHANNELS 3 Zrotation Xrotation Yrotation
						JOINT LeftHand
						{
							OFFSET 25.401896 0.000000 0.000000 
							CHANNELS 3 Zrotation Xrotation Yrotation
							End Site
							{
								OFFSET 14.745877 0.000000 0.000000 
							}
						}
					}
				}
			}
			JOINT RightShoulder
			{
				OFFSET -3.930777 16.042269 -0.398189 
				CHANNELS 3 Zrotation Xrotation Yrotation
				JOINT RightArm
				{
					OFFSET -19.709621 0.000000 0.000000 
					CHANNELS 3 Zrotation Xrotation Yrotation
					JOINT RightForeArm
					{
						OFFSET -25.566900 0.000000 0.000000 
						CHANNELS 3 Zrotation Xrotation Yrotation
						JOINT RightHand
						{
							OFFSET -25.401896 0.000000 0.000000 
							CHANNELS 3 Zrotation Xrotation Yrotation
							End Site
							{
								OFFSET -14.745877 0.000000 0.000000 
							}
						}
					}
				}
			}
		}
	}
	JOINT LeftUpLeg
	{
		OFFSET 9.830585 0.000000 0.000000 
		CHANNELS 3 Zrotation Xrotation Yrotation
		JOINT LeftLeg
		{
			OFFSET -0.000000 -46.474842 0.000000 
			CHANNELS 3 Zrotation Xrotation Yrotation
			JOINT LeftFoot
			{
				OFFSET -0.000000 -30.290520 0.000000 
				CHANNELS 3 Zrotation Xrotation Yrotation
				JOINT LeftToeBase
				{
					OFFSET -0.000000 -6.389880 14.745877 
					CHANNELS 3 Zrotation Xrotation Yrotation
					End Site
					{
						OFFSET -0.000000 0.000000 3.932234 
					}
				}
			}
		}
	}
	JOINT RightUpLeg
	{
		OFFSET -9.830585 0.000000 0.000000 
		CHANNELS 3 Zrotation Xrotation Yrotation
		JOINT RightLeg
		{
			OFFSET -0.000000 -46.474842 0.000000 
			CHANNELS 3 Zrotation Xrotation Yrotation
			JOINT RightFoot
			{
				OFFSET -0.000000 -30.290520 0.000000 
				CHANNELS 3 Zrotation Xrotation Yrotation
				JOINT RightToeBase
				{
					OFFSET -0.000000 -6.389880 14.745877 
					CHANNELS 3 Zrotation Xrotation Yrotation
					End Site
					{
						OFFSET -0.000000 0.000000 3.932234 
					}
				}
			}
		}
	}
}
MOTION
Frames: 15
Frame Time: 0.010000
0.000000 85.597137 0.000000 -1.455481 4.787737 4.806438 1.362297 -7.632622 -0.498751 1.465896 -2.131290 -0.169299 3.269107 9.413866 0.434046 0.385113 -0.984482 1.108754 2.772092 10.083272 -1.478443 -69.250229 29.602688 -25.879702 -13.484602 1.627517 -4.185334 3.219779 1.358307 8.018159 -7.621827 9.877507 -9.289401 46.428234 57.490673 47.867546 6.898619 -10.360582 7.125719 -3.514081 -10.749606 -1.119664 5.196797 0.851154 5.063253 2.386341 -6.139328 1.652184 -0.480441 4.996210 0.300715 0.000000 0.000000 0.000000 -8.603850 -4.795878 6.524603 9.622375 4.744159 -15.354536 -8.158836 1.521386 -7.421798 0.000000 0.000000 0.000000 
-0.002120 85.596756 0.001061 -1.455516 4.782620 4.802441 1.343789 -7.600017 -0.516696 1.514438 -2.198723 -0.173111 3.214629 9.481520 0.458609 0.410231 -1.006308 1.121341 2.693347 9.829172 -1.573669 -69.394501 29.773277 -25.463522 -13.372850 1.546539 -4.251203 3.173695 1.269679 7.989464 -7.672968 9.874242 -9.205091 46.583862 57.498749 47.701630 6.882286 -10.355033 7.140790 -3.559719 -10.743955 -1.105074 5.197475 0.860945 5.078653 2.388355 -6.152639 1.632536 -0.493428 5.007679 0.310200 0.000000 0.000000 0.000000 -8.600759 -4.790319 6.535188 9.618487 4.741839 -15.363024 -8.132873 1.526388 -7.425007 0.000000 0.000000 0.000000 
-0.003317 85.597191 0.002147 -1.453465 4.783642 4.799156 1.343203 -7.604432 -0.516077 1.512707 -2.192641 -0.173107 3.208566 9.471575 0.461014 0.423130 -0.991648 1.120688 2.698419 9.823925 -1.579367 -69.406326 29.775255 -25.449629 -13.366652 1.551003 -4.253552 3.223390 1.277549 7.987917 -7.668835 9.874345 -9.208553 46.546272 57.518406 47.738590 6.875575 -10.365015 7.134704 -3.609796 -10.751494 -1.143189 5.195702 0.860621 5.081690 2.395093 -6.149825 1.626989 -0.526603 5.009881 0.326309 0.000000 0.000000 0.000000 -8.600986 -4.792180 6.535196 9.618959 4.749084 -15.357442 -8.164214 1.514790 -7.403421 0.000000 0.000000 0.000000 
-0.005587 85.596924 0.002920 -1.452877 4.784176 4.798723 1.357556 -7.660835 -0.481301 1.489788 -2.096917 -0.163431 3.226321 9.457727 0.436233 0.413306 -1.026498 1.099741 2.733718 9.826661 -1.617137 -69.431740 29.619398 -25.466871 -13.430034 1.599781 -4.261538 3.215521 1.323078 8.008144 -7.648808 9.867831 -9.259943 46.531128 57.493645 47.776131 6.871417 -10.358184 7.118184 -3.596477 -10.744336 -1.118411 5.200687 0.859844 5.075186 2.382511 -6.146420 1.631898 -0.523514 5.003791 0.334492 0.000000 0.000000 0.000000 -8.600200 -4.792555 6.542750 9.617097 4.746440 -15.371207 -8.143919 1.512468 -7.408532 0.000000 0.000000 0.000000 
-0.006712 85.596977 0.003383 -1.451737 4.786086 4.799852 1.332660 -7.605936 -0.521230 1.528491 -2.193678 -0.174244 3.212039 9.501529 0.455104 0.402458 -1.032635 1.118807 2.689667 9.808105 -1.576599 -69.413757 29.773466 -25.423359 -13.385425 1.540000 -4.258146 3.222919 1.264907 7.974305 -7.666234 9.876357 -9.207728 46.506275 57.531490 47.766560 6.878262 -10.371706 7.138327 -3.649900 -10.757529 -1.163340 5.199175 0.861943 5.069205 2.386772 -6.155589 1.644190 -0.509740 5.016643 0.313779 0.000000 0.000000 0.000000 -8.601285 -4.794868 6.532960 9.618020 4.747877 -15.360783 -8.167117 1.515193 -7.397238 0.000000 0.000000 0.000000 
-0.003379 85.602066 -0.003354 -1.468437 4.787440 4.789784 1.385721 -7.644581 -0.495424 1.462945 -2.108060 -0.169106 3.263916 9.416215 0.427339 0.388009 -0.962162 1.100420 2.768975 10.080179 -1.501900 -69.281433 29.571617 -25.838577 -13.472077 1.619465 -4.201880 3.233958 1.349481 8.006535 -7.594403 9.973862 -9.378203 46.173347 57.432228 48.179287 6.944957 -10.337742 7.105976 -3.648218 -10.725584 -1.170200 5.210299 0.853236 5.063211 2.379045 -6.141722 1.644805 -0.494966 5.009389 0.401231 0.000000 0.000000 0.000000 -8.573204 -4.747411 6.518936 9.590457 4.744589 -14.452174 -8.393427 1.510587 -7.845557 0.000000 0.000000 0.000000 
-0.010069 85.601501 -0.008439 -1.464433 4.806654 4.795286 1.329153 -7.636373 -0.522431 1.555578 -2.174093 -0.174255 3.187308 9.505519 0.508586 0.433739 -1.070273 1.165192 2.685453 9.835523 -1.603806 -69.419380 29.739983 -25.445446 -13.373006 1.541852 -4.256711 3.207959 1.266859 7.992802 -7.688319 9.820403 -9.203270 46.568157 57.558300 47.691242 6.906919 -10.384783 7.152286 -3.623358 -10.772041 -1.208728 5.202586 0.830968 5.079628 2.379765 -6.134785 1.614073 -0.394820 5.024770 0.425137 0.000000 0.000000 0.000000 -8.547663 -4.729607 6.469620 9.553932 4.732970 -13.993565 -8.858132 1.583016 -7.954874 0.000000 0.000000 0.000000 
-0.010317 85.598038 0.005175 -1.454437 4.780336 4.806709 1.358843 -7.634980 -0.508951 1.482604 -2.120645 -0.172646 3.263787 9.460847 0.438929 0.370783 -1.033231 1.115945 2.771403 10.063168 -1.479865 -69.277100 29.593689 -25.832932 -13.506516 1.625713 -4.199767 3.238307 1.355434 8.021465 -7.617492 9.881251 -9.288014 46.352173 57.524193 47.936451 6.895413 -10.383013 7.121793 -3.654027 -10.768157 -1.185315 5.208912 0.863041 5.049728 2.376483 -6.139831 1.646920 -0.514559 4.998755 0.331777 0.000000 0.000000 0.000000 -8.596638 -4.782573 6.541223 9.616697 4.736149 -15.374934 -8.162963 1.528280 -7.393223 0.000000 0.000000 0.000000 
-0.011621 85.597572 0.006711 -1.452158 4.775448 4.812338 1.333683 -7.610971 -0.538426 1.538416 -2.171961 -0.179924 3.204614 9.505071 0.465199 0.394944 -1.029687 1.128580 2.690284 9.833831 -1.578578 -69.405937 29.758549 -25.449989 -13.390759 1.554633 -4.266454 3.204594 1.278381 8.021628 -7.671493 9.871878 -9.204924 46.453514 57.555317 47.820713 6.874258 -10.403835 7.133859 -3.660680 -10.787970 -1.196139 5.200601 0.874401 5.070950 2.389597 -6.166272 1.638403 -0.542412 5.025626 0.331403 0.000000 0.000000 0.000000 -8.598520 -4.772380 6.549701 9.620460 4.730655 -15.382265 -8.141392 1.512935 -7.413601 0.000000 0.000000 0.000000 
-0.012696 85.601410 -0.004662 -1.462914 4.802707 4.790645 1.348518 -7.682170 -0.494841 1.514620 -2.080118 -0.167674 3.262785 9.418852 0.472302 0.372547 -0.993246 1.148666 2.764507 10.013547 -1.527384 -69.332420 29.563068 -25.765093 -13.491577 1.640124 -4.207521 3.228490 1.369491 8.047293 -7.586660 9.902717 -9.296418 46.317211 57.452763 47.937523 6.944219 -10.367410 7.149102 -3.611434 -10.755945 -1.240133 5.202275 0.845102 5.094815 2.382937 -6.153621 1.623057 -0.425717 5.040259 0.419087 0.000000 0.000000 0.000000 -8.540661 -4.740402 6.478667 9.555536 4.690665 -13.983400 -8.379306 1.646752 -8.635984 0.000000 0.000000 0.000000 
-0.012517 85.597420 0.008738 -1.455663 4.779029 4.805544 1.343187 -7.624086 -0.538692 1.535798 -2.162820 -0.180621 3.224376 9.498996 0.464049 0.369323 -1.006445 1.134487 2.688448 9.834055 -1.572619 -69.409966 29.745270 -25.445967 -13.407860 1.566213 -4.265156 3.212308 1.289927 8.015854 -7.674790 9.886841 -9.219922 46.475586 57.505058 47.822178 6.892614 -10.362401 7.129575 -3.609455 -10.747381 -1.215918 5.205332 0.879816 5.070045 2.387026 -6.180380 1.643962 -0.530447 5.026216 0.325426 0.000000 0.000000 0.000000 -8.594635 -4.778899 6.544511 9.619775 4.730567 -15.378027 -8.136617 1.524124 -7.413939 0.000000 0.000000 0.000000 
-0.013906 85.597588 0.008500 -1.457616 4.784671 4.804697 1.356773 -7.662622 -0.519195 1.498419 -2.091637 -0.175980 3.262902 9.420705 0.446826 0.378558 -0.950961 1.121519 2.765191 10.094601 -1.473647 -69.279617 29.573154 -25.861412 -13.495127 1.638824 -4.204109 3.203878 1.366517 8.038890 -7.626499 9.867965 -9.281885 46.388741 57.496273 47.904366 6.911965 -10.355627 7.126595 -3.606036 -10.741684 -1.215153 5.208682 0.873352 5.075830 2.390665 -6.176410 1.633021 -0.554865 5.021030 0.334511 0.000000 0.000000 0.000000 -8.591230 -4.784315 6.549244 9.616697 4.727774 -15.383052 -8.187567 1.529998 -7.368209 0.000000 0.000000 0.000000 
-0.014516 85.601784 -0.002109 -1.469573 4.804861 4.788591 1.315268 -7.657510 -0.530040 1.603293 -2.153538 -0.175957 3.196764 9.472754 0.494746 0.410137 -0.972365 1.154481 2.656119 9.824198 -1.598950 -69.433372 29.743013 -25.435139 -13.378406 1.558325 -4.250982 3.170753 1.282188 8.026367 -7.697790 9.844551 -9.222458 46.539921 57.498749 47.728199 6.938728 -10.339362 7.153686 -3.549500 -10.727848 -1.262413 5.213064 0.849361 5.089781 2.375204 -6.161034 1.643597 -0.429455 5.039175 0.409666 0.000000 0.000000 0.000000 -8.535888 -4.720622 6.471052 9.543736 4.713898 -13.966637 -8.835232 1.604499 -7.998150 0.000000 0.000000 0.000000 
-0.012205 85.598679 0.009723 -1.455130 4.786806 4.802776 1.349669 -7.659019 -0.523430 1.509456 -2.105268 -0.176853 3.267372 9.442432 0.439208 0.386582 -0.970729 1.114342 2.766047 10.101668 -1.467650 -69.289856 29.570925 -25.861050 -13.505072 1.638323 -4.215204 3.222501 1.366055 8.054678 -7.628357 9.868723 -9.279289 46.386295 57.503296 47.899494 6.911097 -10.349400 7.126122 -3.579914 -10.735506 -1.219998 5.201773 0.873690 5.081349 2.389071 -6.186477 1.629874 -0.519870 5.039906 0.333823 0.000000 0.000000 0.000000 -8.593880 -4.784940 6.530186 9.613316 4.727953 -15.384213 -8.145076 1.534110 -7.385434 0.000000 0.000000 0.000000 
-0.012889 85.599770 0.010520 -1.454179 4.785760 4.802416 1.309734 -7.629285 -0.546559 1.590509 -2.175363 -0.181334 3.208676 9.518977 0.450605 0.410925 -1.011181 1.112806 2.673142 9.849917 -1.567771 -69.429611 29.773542 -25.456470 -13.378113 1.550715 -4.269585 3.193295 1.273639 8.015185 -7.680083 9.896265 -9.223133 46.389820 57.532955 47.886482 6.895253 -10.378192 7.126761 -3.581945 -10.763511 -1.213073 5.204043 0.873103 5.077922 2.386129 -6.176713 1.614236 -0.509046 5.032118 0.337038 0.000000 0.000000 0.000000 -8.590781 -4.781739 6.524713 9.602240 4.726537 -15.385999 -8.157665 1.531553 -7.359349 0.000000 0.000000 0.000000 
